<svg width="1080" height="1080" viewBox="0 0 1080 1080" fill="none" xmlns="http://www.w3.org/2000/svg">

<path d="M465.727 484.313L517.871 502.936L544.688 492.507L516.381 482.079V477.609H524.575L548.413 488.038C551.393 487.293 564.056 501.447 557.352 504.426C551.989 506.81 555.117 511.875 557.352 514.11C556.16 521.261 557.849 530.499 558.842 534.223C564.205 540.183 569.519 536.21 571.506 533.478C562.113 528.782 562.069 518.881 563.257 514.314C569.216 510.739 565.05 505.171 562.567 502.936C563.162 498.765 560.828 491.266 559.587 488.038L571.506 483.568L517.871 464.945L465.727 484.313Z" fill="#111111"/>
<path d="M486.586 517.091V497.723C526.812 517.091 526.812 502.19 552.143 498.468V520.815C515.195 535.118 493.042 523.795 486.586 517.091Z" fill="#111111"/>
<path d="M356.971 683.209L597.581 569.236L385.278 605.737L510.425 313.727L738.372 681.719L545.437 237H464.985L298.867 621.38L356.971 683.209Z" fill="#111111"/>
<path d="M224.611 794.429H200.663L196.824 805.764H180.462L203.679 741.597H221.778L244.995 805.764H228.45L224.611 794.429ZM220.589 782.364L212.637 758.873L204.776 782.364H220.589ZM283.138 754.211C289.11 754.211 293.863 756.161 297.398 760.061C300.993 763.9 302.79 769.202 302.79 775.966V805.764H287.252V778.068C287.252 774.655 286.368 772.005 284.601 770.116C282.834 768.227 280.457 767.282 277.471 767.282C274.485 767.282 272.109 768.227 270.342 770.116C268.574 772.005 267.691 774.655 267.691 778.068V805.764H252.061V754.76H267.691V761.524C269.275 759.269 271.408 757.502 274.089 756.222C276.77 754.881 279.787 754.211 283.138 754.211ZM310.544 780.17C310.544 774.93 311.519 770.329 313.469 766.368C315.48 762.407 318.192 759.36 321.604 757.228C325.017 755.095 328.825 754.028 333.03 754.028C336.625 754.028 339.763 754.76 342.445 756.222C345.187 757.685 347.289 759.604 348.752 761.981V754.76H364.382V805.764H348.752V798.543C347.228 800.919 345.095 802.839 342.353 804.301C339.672 805.764 336.534 806.495 332.938 806.495C328.795 806.495 325.017 805.429 321.604 803.296C318.192 801.102 315.48 798.025 313.469 794.064C311.519 790.042 310.544 785.411 310.544 780.17ZM348.752 780.262C348.752 776.362 347.655 773.284 345.461 771.03C343.328 768.775 340.708 767.648 337.6 767.648C334.492 767.648 331.842 768.775 329.648 771.03C327.515 773.223 326.449 776.27 326.449 780.17C326.449 784.07 327.515 787.178 329.648 789.494C331.842 791.748 334.492 792.876 337.6 792.876C340.708 792.876 343.328 791.748 345.461 789.494C347.655 787.239 348.752 784.162 348.752 780.262ZM406.767 754.211C412.739 754.211 417.492 756.161 421.027 760.061C424.622 763.9 426.42 769.202 426.42 775.966V805.764H410.881V778.068C410.881 774.655 409.997 772.005 408.23 770.116C406.463 768.227 404.086 767.282 401.1 767.282C398.114 767.282 395.738 768.227 393.971 770.116C392.204 772.005 391.32 774.655 391.32 778.068V805.764H375.69V754.76H391.32V761.524C392.904 759.269 395.037 757.502 397.718 756.222C400.4 754.881 403.416 754.211 406.767 754.211ZM465.708 792.51V805.764H457.756C452.089 805.764 447.671 804.393 444.502 801.65C441.333 798.847 439.749 794.308 439.749 788.031V767.739H433.533V754.76H439.749V742.328H455.379V754.76H465.617V767.739H455.379V788.214C455.379 789.737 455.745 790.834 456.476 791.504C457.207 792.175 458.426 792.51 460.132 792.51H465.708ZM505.766 754.211C511.616 754.211 516.308 756.161 519.843 760.061C523.377 763.9 525.144 769.202 525.144 775.966V805.764H509.605V778.068C509.605 774.655 508.722 772.005 506.955 770.116C505.187 768.227 502.811 767.282 499.825 767.282C496.839 767.282 494.463 768.227 492.695 770.116C490.928 772.005 490.045 774.655 490.045 778.068V805.764H474.414V738.124H490.045V761.615C491.629 759.36 493.792 757.563 496.534 756.222C499.277 754.881 502.354 754.211 505.766 754.211ZM586.37 754.76V805.764H570.74V798.817C569.155 801.072 566.992 802.9 564.25 804.301C561.569 805.642 558.583 806.312 555.292 806.312C551.392 806.312 547.949 805.459 544.963 803.753C541.978 801.986 539.662 799.457 538.017 796.166C536.371 792.876 535.549 789.006 535.549 784.558V754.76H551.088V782.455C551.088 785.868 551.971 788.519 553.738 790.408C555.506 792.297 557.882 793.241 560.868 793.241C563.915 793.241 566.322 792.297 568.089 790.408C569.856 788.519 570.74 785.868 570.74 782.455V754.76H586.37ZM601.162 741.597H617.158L606.92 766.094H596.409L601.162 741.597ZM647.089 806.495C642.64 806.495 638.679 805.733 635.206 804.21C631.733 802.686 628.991 800.615 626.98 797.994C624.969 795.313 623.841 792.327 623.598 789.037H639.045C639.228 790.804 640.051 792.236 641.513 793.333C642.976 794.429 644.773 794.978 646.906 794.978C648.856 794.978 650.349 794.612 651.385 793.881C652.482 793.089 653.03 792.083 653.03 790.865C653.03 789.402 652.268 788.336 650.745 787.665C649.222 786.934 646.754 786.142 643.341 785.289C639.685 784.436 636.638 783.552 634.201 782.638C631.763 781.663 629.661 780.17 627.894 778.159C626.127 776.087 625.243 773.315 625.243 769.841C625.243 766.916 626.035 764.266 627.619 761.889C629.265 759.452 631.641 757.532 634.749 756.131C637.918 754.729 641.665 754.028 645.992 754.028C652.39 754.028 657.418 755.613 661.074 758.781C664.791 761.95 666.924 766.155 667.472 771.395H653.03C652.786 769.628 651.994 768.227 650.654 767.191C649.374 766.155 647.668 765.637 645.535 765.637C643.707 765.637 642.305 766.002 641.33 766.734C640.355 767.404 639.868 768.348 639.868 769.567C639.868 771.03 640.629 772.127 642.153 772.858C643.737 773.589 646.175 774.32 649.465 775.052C653.243 776.027 656.321 777.002 658.697 777.976C661.074 778.891 663.146 780.414 664.913 782.547C666.741 784.619 667.685 787.422 667.746 790.956C667.746 793.942 666.893 796.623 665.187 799C663.542 801.315 661.135 803.143 657.966 804.484C654.858 805.825 651.232 806.495 647.089 806.495ZM745.581 762.255C745.581 765.972 744.728 769.384 743.021 772.492C741.315 775.539 738.695 778.007 735.16 779.896C731.626 781.785 727.239 782.73 721.998 782.73H712.309V805.764H696.679V741.597H721.998C727.117 741.597 731.443 742.481 734.978 744.248C738.512 746.015 741.163 748.453 742.93 751.56C744.697 754.668 745.581 758.233 745.581 762.255ZM720.81 770.298C723.796 770.298 726.02 769.598 727.482 768.196C728.945 766.795 729.676 764.814 729.676 762.255C729.676 759.695 728.945 757.715 727.482 756.313C726.02 754.912 723.796 754.211 720.81 754.211H712.309V770.298H720.81ZM750.61 780.262C750.61 774.96 751.677 770.329 753.809 766.368C756.003 762.407 759.019 759.36 762.858 757.228C766.758 755.095 771.207 754.028 776.204 754.028C782.602 754.028 787.934 755.704 792.199 759.056C796.526 762.407 799.36 767.13 800.7 773.223H784.064C782.663 769.323 779.951 767.373 775.929 767.373C773.065 767.373 770.78 768.501 769.074 770.755C767.368 772.949 766.515 776.118 766.515 780.262C766.515 784.405 767.368 787.605 769.074 789.859C770.78 792.053 773.065 793.15 775.929 793.15C779.951 793.15 782.663 791.2 784.064 787.3H800.7C799.36 793.272 796.526 797.964 792.199 801.376C787.873 804.789 782.541 806.495 776.204 806.495C771.207 806.495 766.758 805.429 762.858 803.296C759.019 801.163 756.003 798.116 753.809 794.155C751.677 790.194 750.61 785.563 750.61 780.262ZM874.141 754.211C880.479 754.211 885.506 756.131 889.223 759.97C893.001 763.809 894.89 769.141 894.89 775.966V805.764H879.351V778.068C879.351 774.777 878.468 772.248 876.701 770.481C874.994 768.653 872.618 767.739 869.571 767.739C866.524 767.739 864.117 768.653 862.35 770.481C860.644 772.248 859.791 774.777 859.791 778.068V805.764H844.252V778.068C844.252 774.777 843.368 772.248 841.601 770.481C839.895 768.653 837.518 767.739 834.471 767.739C831.425 767.739 829.018 768.653 827.25 770.481C825.544 772.248 824.691 774.777 824.691 778.068V805.764H809.061V754.76H824.691V761.158C826.276 759.025 828.347 757.349 830.907 756.131C833.466 754.851 836.361 754.211 839.59 754.211C843.429 754.211 846.842 755.034 849.828 756.679C852.874 758.324 855.251 760.67 856.957 763.717C858.724 760.914 861.131 758.629 864.178 756.862C867.225 755.095 870.546 754.211 874.141 754.211Z" fill="#111111"/>
</svg>
